<svg id="Layer_1" data-name="Layer 1" xmlns="http://www.w3.org/2000/svg" viewBox="0 0 80.03 77.88">
  <defs>
    <style>
      .cls-1 {
        fill: #fff;
        stroke-miterlimit: 10;
      }

      .cls-1, .cls-2 {
        stroke: #231f20;
      }

      .cls-2 {
        fill: #d0e0eb;
        stroke-linecap: round;
        stroke-linejoin: round;
        stroke-width: 0.5px;
      }

      .cls-3 {
        fill: #9e2c17;
      }
    </style>
  </defs>
  <title>prof</title>
  <g>
    <path class="cls-1" d="M637.58,421.59" transform="translate(-647.02 -346.83)"/>
    <g>
      <path d="M660.23,419.93c-1.3-1.55-2.61-3.1-3.9-4.65-.05-.06,0-.22,0-.27-3.21-2.94-2.92-7.15-3.76-10.89-.45-2,0-4.24,0-6.37.15,5.21.46,10.39,3.74,14.86-.41-1.23-.81-2.47-1.37-4.15l1.74,1.33c.15-3.46.39-6.67.41-9.88a4.07,4.07,0,0,0-4.56-3.72c0-1.18.35-2.55-.14-3.5-1.55-3-3.41-5.89-5.34-9.14h2.78l-1-2.7.63-.07a12.58,12.58,0,0,1,1-3.08c1.74-4.7,4.43-3.23,2.45-7.39,3.53-.19-2.36-4.79.55-4.81,2.13,0,3.13-.64,2.66-3-.32-1.6-.34-3.27-.55-5.54l8.18,2.69.44-3.41h.56c2.69,1.19,5.39,2.34,8.07,3.57.89.41,1.7,1,2.55,1.5l-10.58-3.74-.24,3.14-8.27-2.81c.3,3,.55,5.49.85,8.42-4.08,0,1,4.32-3.36,4.32,2.57,5.16-3.92,5.43-1.46,10.36-4.35-.07-.9,2.33-1.69,3.55l-1.88.16c2.67,4.13,5.12,7.92,7.56,11.71a10.32,10.32,0,0,0,1.15-4.18c.4-4.15.7-8.31,1.2-12.45.16-1.31-.06-3.29,2.27-3.05,4.61.47,9.21,1,13.82,1.52,1.82.2,2.6,1.23,3,3,.47,2.11,1.3,4.14,2,6.2l.65-.22c.11-2,.23-4.06.38-6.76l3.64,3.94-1.22-6.37a18.25,18.25,0,0,0,2.5.19c3.7-.26,7.39-.69,11.09-.86,6.41-.3,6.61,0,7.18,6.61.24,2.8.82,5.57,1.31,8.75l4.32-2.26-2-.41c.73-1.82,1.86-3.46,2-5.16.23-4.15-4.19-4.78-4.51-8.93-.09-1.15-1.4-2.22-2.15-3.33,2.54.07,3.3,1.68,3.25,3.88-.14,5.34,4,7.11,3.82,12.44-.11,2.82-1.47,5.87,1.65,8l.08-.07c-2.58-1.82-3.49-1.37-6.7,3.62-.24-1.93-.44-3.39-.6-4.86s-.26-2.95-.46-4.42c-.52-3.77-1-7.53-1.68-11.27-.12-.64-1.05-1.63-1.59-1.62-5.34.1-10.68.37-16.29.6l.7,6.49-3.43-2-1.12,6.58-.73.11c-.92-2.77-2-5.51-2.74-8.32-.51-1.81-1.2-2.73-3.36-2.81a100.23,100.23,0,0,1-11.3-1.3c-2-.31-2.7.35-2.81,2.28-.64,10.63-1.17,21.27-2.1,31.87C657,415.28,658.55,417.52,660.23,419.93Z" transform="translate(-647.02 -346.83)"/>
      <path d="M689.58,398.21l-5.14,1.88c-1.3-2.07-1-3.53,1.18-4.78,3-1.74,5.68-3.86,8.69-5.49a4.34,4.34,0,0,1,3.62.33c1.33.83,2.25,2.3,3.49,3.64l-6,1.69c1.67,3,4.34,5.61,3.22,8.82a73.62,73.62,0,0,0-3.18-6.94c-.34-.61-1.88-.73-2.84-.67-.28,0-.67,1.41-.69,2.19a42.53,42.53,0,0,1-.66,8.31C689,404.49,690.26,401.27,689.58,398.21Z" transform="translate(-647.02 -346.83)"/>
      <path d="M659.65,393.1a2.78,2.78,0,0,1,.07-.7c1.62-5.33,2.45-5.68,7-2.71,2.17,1.43,4.17,3.13,6.35,4.54a4.29,4.29,0,0,1,2.09,5.11l-3.91-1.23c0,2.33.07,4.42,0,6.5a7,7,0,0,1-.8,2.05c-.44-.69-1.2-1.34-1.26-2.05-.16-2,.08-4.08-.09-6.1a3.22,3.22,0,0,0-1.19-2.38C665.28,395,662.57,394.14,659.65,393.1Z" transform="translate(-647.02 -346.83)"/>
      <path d="M671.68,420.15l1.08,1.66-.26.31-4.43-3.85c8.43,1.74,16.62,2.67,25,1.09.59,2.43-6.33,5.56-11.49,5.33L690,422l-.21-.77Z" transform="translate(-647.02 -346.83)"/>
      <path d="M705.69,368.57c-4.93-1.19-9.84-2.46-14.79-3.53-3.87-.85-7.82-1.39-11.7-2.21a25.67,25.67,0,0,1-4-1.56C685.54,362.88,695.87,364.67,705.69,368.57Z" transform="translate(-647.02 -346.83)"/>
      <path d="M704.68,410.7c.39,1.7.77,3.41,1.27,5.6l-5.52,6-.95-.64C704.1,419.24,704.83,415.26,704.68,410.7Z" transform="translate(-647.02 -346.83)"/>
      <path d="M711.44,397c2.82,4.28,2.2,8.62.85,12.17-.23-3.57-.5-7.9-.77-12.23Z" transform="translate(-647.02 -346.83)"/>
    </g>
    <g>
      <path class="cls-2" d="M649.76,385.27c17.49-12.42,44.69-9.07,57.43,6.73l.75-8c-11.48-14.41-41.88-18.34-57.27-5.92C650.14,383.67,650.81,376.56,649.76,385.27Z" transform="translate(-647.02 -346.83)"/>
      <g>
        <path d="M726.73,381.5c-.62-4.83-10.35-31.74-39.77-34.4-40.8-3.68-36.82,31-36.82,31l.24-.1h0c14.91-12,43.92-8.72,56.15,4.62a15.76,15.76,0,0,1,1.13,1.21c2,2.35,2.68,9.16,11.51,14.53S727.34,386.33,726.73,381.5Z" transform="translate(-647.02 -346.83)"/>
        <g>
          <path class="cls-3" d="M669.68,371.24l-7.57,1.43c-6.41-3.07,12.16-26.3,19.53-25.84a35.37,35.37,0,0,1,5.91.33C678.93,349.51,663.73,372,669.68,371.24Z" transform="translate(-647.02 -346.83)"/>
          <path class="cls-3" d="M685.27,372l-7.67-1c-1.73-8.56,12.13-22.28,19.5-21.82,0,0,.32-.12,4.72,1.84C694,352.12,679.07,368.7,685.27,372Z" transform="translate(-647.02 -346.83)"/>
        </g>
      </g>
    </g>
  </g>
</svg>
