<svg id="Capa_1" data-name="Capa 1" xmlns="http://www.w3.org/2000/svg" viewBox="0 0 610.9 610.9">
  <defs>
    <style>
      .secondary-color {
        fill: #9E2C17;
      }
      .grey-color {
        fill: #989aa2;
      }
    </style>
  </defs>
  <title>not-found</title>
  <path class="grey-color" d="M741.35,402.3a49.35,49.35,0,0,1-5.6-20.9l-2.5-57.6a25.08,25.08,0,0,0-11.6-20l-48.7-31a49.64,49.64,0,0,1-15.3-15.3l-31-48.7a25.08,25.08,0,0,0-20-11.6L549,194.7a49.35,49.35,0,0,1-20.9-5.6l-51.3-26.6a25,25,0,0,0-23,0l-51.3,26.6a49.35,49.35,0,0,1-20.9,5.6l-57.7,2.5a25.08,25.08,0,0,0-20,11.6l-31,48.7a49.64,49.64,0,0,1-15.3,15.3l-48.7,31a25.08,25.08,0,0,0-11.6,20l-2.5,57.7a49.35,49.35,0,0,1-5.6,20.9l-26.6,51.3a24.63,24.63,0,0,0,0,23l26.6,51.3a49.35,49.35,0,0,1,5.6,20.9l2.5,57.7a25.08,25.08,0,0,0,11.6,20l3.6,2.3,12.8,8.1,12.8,8.1,19.5,12.4a49.64,49.64,0,0,1,15.3,15.3l31,48.7a25.08,25.08,0,0,0,20,11.6l57.7,2.5a49.35,49.35,0,0,1,20.9,5.6l3.1,1.6,48.1,25a25,25,0,0,0,23,0l33.9-17.6,17.4-9a28.75,28.75,0,0,1,4-1.8,51.88,51.88,0,0,1,16.9-3.8l1.3-.1,56.4-2.5a25.08,25.08,0,0,0,20-11.6l31-48.7a49.64,49.64,0,0,1,15.3-15.3l11-7,37.6-23.9a25.08,25.08,0,0,0,11.6-20l2.5-57.7a49.35,49.35,0,0,1,5.6-20.9l26.6-51.3a24.63,24.63,0,0,0,0-23Z" transform="translate(-159.7 -159.7)"/>
  <path class="secondary-color" d="M495.9,294H422.8c-35.73,0-64.8,30-64.8,66.8a21.39,21.39,0,0,0,21.6,21.64,21.79,21.79,0,0,0,21.6-21.64c0-12.27,9.68-22.27,21.6-22.27h73.1c19.24,0,34.9,16.14,34.9,36,0,13.73-7.4,26.08-20.59,32.94l-65.94,39.85c-7.23,4-10.67,11.34-10.67,19.21V494.4c0,12.3,9.66,22.26,21.6,22.26s21.6-10,21.6-22.26V479.3l54-32.71c26.64-13.74,43.2-41.34,43.2-72C574,330.14,539,294,495.9,294ZM455.2,550.07c-14.91,0-27,12.46-27,27.83a26.89,26.89,0,0,0,27,27.21,27.29,27.29,0,0,0,27-27.21C482.2,563.15,470.12,550.07,455.2,550.07Z" transform="translate(-159.7 -159.7)"/>
</svg>
