<svg id="Layer_1" data-name="Layer 1" xmlns="http://www.w3.org/2000/svg" viewBox="0 0 156.06 156.06"><defs><style>.cls-1,.cls-3{fill:none;stroke-width:0.5px;}.cls-1{stroke:#000;stroke-dasharray:81.45 81.45;}.cls-1,.cls-2,.cls-3{stroke-miterlimit:10;}.cls-2,.cls-4{fill:#fff;}.cls-2,.cls-3{stroke:#dc0a2d;}.cls-2{stroke-width:2px;}.cls-5{fill:#231f20;}.cls-6{fill:#6d6e6e;}</style></defs><title>falidex-spinner</title><circle class="cls-1" cx="682.73" cy="384.47" r="77.78" transform="translate(-676.6 288.93) rotate(-45)"/><circle class="cls-2" cx="78.03" cy="78.03" r="68.46"/><circle class="cls-3" cx="78.03" cy="78.03" r="71.33"/><path d="M659.64,401.09l-3.85-4.58c0-.06,0-.22,0-.26-3.16-2.9-2.88-7-3.7-10.72-.44-2,0-4.19,0-6.29.14,5.14.45,10.24,3.68,14.64-.4-1.21-.8-2.43-1.34-4.09l1.7,1.32c.15-3.41.38-6.57.41-9.74a4,4,0,0,0-4.49-3.66c0-1.16.34-2.51-.14-3.44-1.52-3-3.36-5.81-5.26-9h2.74l-1-2.67.62-.06a12.26,12.26,0,0,1,.95-3c1.71-4.63,4.36-3.18,2.42-7.27,3.46-.2-2.33-4.72.53-4.74,2.11,0,3.08-.63,2.63-2.92-.32-1.58-.34-3.21-.55-5.45l8,2.65.44-3.36H664c2.65,1.17,5.32,2.31,7.95,3.51a27.52,27.52,0,0,1,2.51,1.48L664,339.72l-.24,3.09-8.14-2.76c.29,2.92.54,5.4.82,8.28-4,0,1,4.26-3.3,4.26,2.53,5.08-3.86,5.35-1.43,10.2-4.3-.06-.89,2.3-1.67,3.5l-1.86.15L655.67,378a10.34,10.34,0,0,0,1.13-4.11c.39-4.09.69-8.19,1.18-12.27.15-1.29-.06-3.23,2.23-3,4.54.46,9.07,1,13.61,1.5,1.8.19,2.57,1.2,2.95,2.93.47,2.08,1.29,4.07,2,6.1l.63-.21c.12-2,.23-4,.38-6.66l3.58,3.88-1.2-6.27a16.21,16.21,0,0,0,2.47.18c3.64-.25,7.27-.67,10.92-.84,6.3-.29,6.51,0,7.07,6.51.23,2.76.81,5.49,1.28,8.62l4.26-2.23-2-.4c.71-1.79,1.83-3.41,1.92-5.09.23-4.08-4.13-4.7-4.44-8.79-.09-1.14-1.38-2.19-2.12-3.28,2.51.07,3.26,1.66,3.2,3.82-.13,5.26,4,7,3.77,12.25-.11,2.78-1.45,5.78,1.62,7.89l.08-.06c-2.54-1.8-3.44-1.36-6.6,3.55-.23-1.89-.43-3.33-.59-4.78s-.25-2.91-.45-4.36c-.51-3.7-1-7.41-1.66-11.09-.11-.63-1-1.6-1.56-1.59-5.26.09-10.52.35-16,.58l.68,6.39-3.38-1.94-1.1,6.48-.71.11c-.91-2.73-1.92-5.43-2.7-8.2-.51-1.78-1.19-2.69-3.31-2.77a99.53,99.53,0,0,1-11.13-1.28c-2-.3-2.66.35-2.77,2.25-.63,10.46-1.15,20.94-2.07,31.38C656.47,396.51,658,398.72,659.64,401.09Z" transform="translate(-604.71 -306.44)"/><path d="M688.55,379.7l-5.06,1.86c-1.29-2-.94-3.48,1.15-4.71,2.91-1.71,5.6-3.81,8.56-5.41a4.26,4.26,0,0,1,3.57.33c1.31.81,2.22,2.26,3.43,3.57L694.32,377c1.64,3,4.26,5.53,3.17,8.69-.91-2.05-1.84-4.55-3.13-6.84-.34-.59-1.85-.72-2.8-.66-.28,0-.66,1.4-.68,2.16a41.92,41.92,0,0,1-.65,8.18C688,385.89,689.22,382.72,688.55,379.7Z" transform="translate(-604.71 -306.44)"/><path d="M659.07,374.67a2.67,2.67,0,0,1,.07-.69c1.59-5.24,2.41-5.59,6.88-2.66,2.14,1.4,4.11,3.07,6.25,4.46a4.21,4.21,0,0,1,2.06,5l-3.85-1.21c0,2.3.07,4.35,0,6.4a6.8,6.8,0,0,1-.78,2c-.44-.67-1.18-1.32-1.24-2-.16-2,.07-4-.09-6a3.19,3.19,0,0,0-1.18-2.35C664.61,376.52,661.94,375.7,659.07,374.67Z" transform="translate(-604.71 -306.44)"/><path d="M670.91,401.31l1.07,1.63-.26.31-4.36-3.79c8.3,1.71,16.37,2.63,24.61,1.07.58,2.39-6.23,5.48-11.32,5.25l8.26-2.61-.21-.75Z" transform="translate(-604.71 -306.44)"/><path d="M704.41,350.51c-4.85-1.17-9.69-2.42-14.56-3.48-3.82-.83-7.7-1.36-11.53-2.17a24.93,24.93,0,0,1-4-1.54C684.57,344.91,694.74,346.67,704.41,350.51Z" transform="translate(-604.71 -306.44)"/><path d="M703.42,392l1.25,5.52-5.44,5.93-.94-.63C702.84,400.42,703.57,396.5,703.42,392Z" transform="translate(-604.71 -306.44)"/><path d="M710.07,378.51c2.77,4.21,2.16,8.49.84,12-.22-3.52-.49-7.79-.76-12.05Z" transform="translate(-604.71 -306.44)"/><path class="cls-4" d="M649.33,367c17.22-12.24,44-8.94,56.55,6.62l.74-7.83c-11.3-14.2-41.24-18.07-56.4-5.84C649.71,365.38,650.37,358.39,649.33,367Z" transform="translate(-604.71 -306.44)"/><path class="cls-5" d="M705.88,373.72a.12.12,0,0,1-.1-.05c-12.52-15.52-39.38-18.66-56.37-6.6a.15.15,0,0,1-.22-.13,40.3,40.3,0,0,1,.67-4.74c0-.17.08-.76.23-2.3a.11.11,0,0,1,0-.09c7.14-5.76,17.94-8.33,29.63-7,11.46,1.27,21.54,6.08,27,12.89a.19.19,0,0,1,0,.1l-.74,7.83a.13.13,0,0,1-.1.12Zm-32-14.34a47.09,47.09,0,0,1,5.55.33c10.76,1.28,20.36,6.21,26.4,13.53l.7-7.45c-5.38-6.73-15.37-11.49-26.74-12.74-11.6-1.28-22.3,1.25-29.39,6.94a16.12,16.12,0,0,1-.27,2.39c-.05.19-.18,1.05-.58,4.28A42.78,42.78,0,0,1,673.83,359.38Z" transform="translate(-604.71 -306.44)"/><path d="M725.13,363.25c-.61-4.76-10.19-31.26-39.17-33.88-40.17-3.62-36.26,30.53-36.26,30.53l.24-.09h0c14.69-11.85,43.25-8.58,55.29,4.54a15.36,15.36,0,0,1,1.12,1.2c1.92,2.31,2.64,9,11.34,14.31S725.73,368,725.13,363.25Z" transform="translate(-604.71 -306.44)"/><ellipse class="cls-6" cx="715.15" cy="362.43" rx="1.23" ry="1.43" transform="translate(-317.41 734.02) rotate(-84.62)"/><path class="cls-4" d="M715.19,363.73H715a1.57,1.57,0,0,1-1-.47,1.18,1.18,0,0,1-.35-1,1.22,1.22,0,0,1,.52-.88,1.64,1.64,0,0,1,1.09-.27,1.52,1.52,0,0,1,1,.47,1.19,1.19,0,0,1,.36,1h0a1.2,1.2,0,0,1-.53.88A1.61,1.61,0,0,1,715.19,363.73Zm-.09-2.47a1.46,1.46,0,0,0-.84.26,1.1,1.1,0,0,0-.47.78,1.08,1.08,0,0,0,.32.85,1.46,1.46,0,0,0,.93.44,1.54,1.54,0,0,0,1-.25,1.09,1.09,0,0,0,.47-.78h0a1.07,1.07,0,0,0-.31-.85,1.51,1.51,0,0,0-.93-.44Z" transform="translate(-604.71 -306.44)"/><circle class="cls-6" cx="109.21" cy="62.73" r="1.23"/><path class="cls-4" d="M713.92,370.47h-.12a1.27,1.27,0,0,1-.88-.47,1.3,1.3,0,0,1-.3-.95,1.33,1.33,0,0,1,.47-.88,1.27,1.27,0,0,1,.95-.29,1.29,1.29,0,0,1,1.17,1.42h0A1.29,1.29,0,0,1,713.92,370.47Zm0-2.46a1.13,1.13,0,0,0-.74.27,1.17,1.17,0,0,0-.42.78,1.21,1.21,0,0,0,.26.86,1.17,1.17,0,0,0,2.06-.64h0A1.16,1.16,0,0,0,714,368Z" transform="translate(-604.71 -306.44)"/><ellipse class="cls-6" cx="719.94" cy="375.29" rx="0.77" ry="1.23" transform="translate(-695.6 27.64) rotate(-24.62)"/><path class="cls-4" d="M720.24,376.52a.63.63,0,0,1-.26,0,1.56,1.56,0,0,1-.81-.83c-.29-.65-.19-1.34.23-1.53s1,.18,1.31.83a1.72,1.72,0,0,1,.16.92.73.73,0,0,1-.39.61A.47.47,0,0,1,720.24,376.52Zm-.59-2.33a.41.41,0,0,0-.19,0c-.36.16-.43.77-.16,1.35a1.45,1.45,0,0,0,.73.77.55.55,0,0,0,.4,0,.62.62,0,0,0,.3-.51,1.51,1.51,0,0,0-.15-.84h0A1.22,1.22,0,0,0,719.65,374.19Z" transform="translate(-604.71 -306.44)"/><circle class="cls-6" cx="114.89" cy="64.29" r="1.76"/><path class="cls-4" d="M719.6,372.57h-.18a1.82,1.82,0,0,1-1.24-.66,1.8,1.8,0,0,1-.41-1.34,1.85,1.85,0,0,1,.65-1.24,1.84,1.84,0,0,1,3,1.59,1.86,1.86,0,0,1-.66,1.24A1.84,1.84,0,0,1,719.6,372.57Zm0-3.53a1.68,1.68,0,0,0-1.68,1.54,1.61,1.61,0,0,0,.38,1.23,1.69,1.69,0,0,0,2.38.23,1.69,1.69,0,0,0-.92-3Z" transform="translate(-604.71 -306.44)"/><ellipse class="cls-6" cx="722.57" cy="364.65" rx="1.34" ry="1.63" transform="translate(-687.97 -17.39) rotate(-21.42)"/><path class="cls-4" d="M722.75,366.31a1.41,1.41,0,0,1-.68-.18,2,2,0,0,1-.82-1,1.44,1.44,0,1,1,2.63-1h0a1.59,1.59,0,0,1-.69,2.1A1.36,1.36,0,0,1,722.75,366.31Zm-.37-3.19a1.07,1.07,0,0,0-.39.07,1.44,1.44,0,0,0-.61,1.92,1.74,1.74,0,0,0,.76.9,1.18,1.18,0,0,0,1,.09,1.44,1.44,0,0,0,.61-1.92h0A1.56,1.56,0,0,0,722.38,363.12Z" transform="translate(-604.71 -306.44)"/><ellipse class="cls-6" cx="714.25" cy="356.7" rx="1.34" ry="1.75" transform="translate(-268.7 753.33) rotate(-88.26)"/><path class="cls-4" d="M714.28,358.11h-.07a1.65,1.65,0,0,1-1.77-1.47,1.28,1.28,0,0,1,.56-1,2.17,2.17,0,0,1,1.29-.37,1.45,1.45,0,1,1,0,2.83Zm-.06-2.69a2,2,0,0,0-1.14.34,1.14,1.14,0,0,0-.51.88c0,.71.72,1.3,1.64,1.33h.07a1.5,1.5,0,0,0,1.65-1.22h0c0-.71-.71-1.3-1.64-1.33Z" transform="translate(-604.71 -306.44)"/><ellipse class="cls-6" cx="704.78" cy="355.78" rx="2.08" ry="2.56" transform="translate(-276.97 742.98) rotate(-88.26)"/><path class="cls-4" d="M704.82,357.93h-.1a2.9,2.9,0,0,1-1.83-.68,2,2,0,0,1-.73-1.55,2,2,0,0,1,.82-1.5,2.93,2.93,0,0,1,1.87-.57,2.44,2.44,0,0,1,2.56,2.23,2,2,0,0,1-.82,1.5A2.93,2.93,0,0,1,704.82,357.93Zm-.07-4.16a2.8,2.8,0,0,0-1.69.54,1.83,1.83,0,0,0-.76,1.4,1.78,1.78,0,0,0,.68,1.43,2.9,2.9,0,0,0,3.52.11,1.83,1.83,0,0,0,.77-1.39,2.29,2.29,0,0,0-2.43-2.09Z" transform="translate(-604.71 -306.44)"/><path class="cls-6" d="M723.31,357.43a1.77,1.77,0,1,1-1.37-2.64l.18,0Z" transform="translate(-604.71 -306.44)"/><path class="cls-4" d="M721.78,358.38h-.17a1.77,1.77,0,0,1-1.24-.65,1.83,1.83,0,0,1,1.58-3l.18,0h0l1.22,2.67,0,0A1.84,1.84,0,0,1,721.78,358.38Zm0-3.52a1.69,1.69,0,1,0,1.45,2.56l-1.16-2.54-.13,0Z" transform="translate(-604.71 -306.44)"/><path class="cls-6" d="M668.94,353.14l-7.45,1.41c-6.31-3,12-25.9,19.23-25.44a34.2,34.2,0,0,1,5.83.32C678.06,331.74,663.08,353.93,668.94,353.14Z" transform="translate(-604.71 -306.44)"/><path class="cls-6" d="M684.3,353.88l-7.55-1c-1.7-8.43,12-21.95,19.2-21.49,0,0,.31-.12,4.64,1.81C692.92,334.31,678.2,350.64,684.3,353.88Z" transform="translate(-604.71 -306.44)"/><path d="M641.26,433.56,640.47,419l-1.35.24.24-4.59,11.71-1.74.24,4.2-6.64,1.1.15,3,5-.79.25,3.48-5.07.94.56,8.71c-.24,0-.63.08-1.17.13a14,14,0,0,1-1.51.09A4.26,4.26,0,0,1,641.26,433.56Z" transform="translate(-604.71 -306.44)"/><path d="M657.28,413.07l9.49,22.86-4,.4-4.51-10.52-2.54-.4-4,8.39-5,.24Zm-1.42,10,2.29.32-.95-3.72Z" transform="translate(-604.71 -306.44)"/><path d="M667,429.6l10.13.48-.07,4.19L663,433.56l-.87-16.77-1.42.32.47-2.38,4.91-2.06Z" transform="translate(-604.71 -306.44)"/><path d="M679.18,426.44l4.91.07-.08,4.2H672.38l.48-3.71,2.69-.09.39-8.38-4.19.71.24-4.59,11.7-1.74.24,4.2-4,.79Z" transform="translate(-604.71 -306.44)"/><path d="M696,415.92a12.28,12.28,0,0,1,.75,1.88,11.22,11.22,0,0,1,.45,1.93,13.86,13.86,0,0,1,.14,1.91,11.44,11.44,0,0,1-.45,3.22,9.65,9.65,0,0,1-1.29,2.77,7.08,7.08,0,0,1-2,2,6.3,6.3,0,0,1-2.64.94l-4,.71-1.35-12.42s-.21.18-.48.52-.42.51-.47.51a1.44,1.44,0,0,1-.37-.82c-.11-.45-.26-1.15-.46-2.11a12,12,0,0,0-.43-1.74q2.22-.72,4.2-1.17a16.47,16.47,0,0,1,3.67-.45Q694.86,413.58,696,415.92Zm-3.8,1.74a4,4,0,0,0-1.27-.28,2.16,2.16,0,0,0-1.27.43l.48,8.79a5.69,5.69,0,0,0,2.18-1.39,3.28,3.28,0,0,0,.66-1.15,4.46,4.46,0,0,0,.2-1.05,15.36,15.36,0,0,0,.1-1.88,9.64,9.64,0,0,0-.24-2.31C692.87,418.18,692.59,417.79,692.2,417.66Z" transform="translate(-604.71 -306.44)"/><path d="M701.65,429.6l10.13.48-.08,4.19-14.09-.71L696.83,419l-1.36.24.25-4.59,11.7-1.74.24,4.2-6.64,1.1.15,3,6.57-1.11.24,3.48-6.64,1.26Z" transform="translate(-604.71 -306.44)"/><path d="M714.42,427.62,710.71,434l-5,.15L712.6,423l-5.78-9.65,5.39.78,2.69,4.6,2.6-4.6,5.31-.23-5.61,9.44,5,9.94-5.47-1.26Z" transform="translate(-604.71 -306.44)"/></svg>